<svg id="Layer_1" data-name="Layer 1" xmlns="http://www.w3.org/2000/svg" viewBox="0 0 327.4 84.38"><defs><style>.cls-1{fill:#4ac0b6;}.cls-2{fill:#fff;}.cls-3{fill:#010101;}</style></defs><title>AIGA-SD_1Line_4C</title><rect class="cls-1" width="84.38" height="84.38"/><path class="cls-2" d="M35.86,33.07a1.28,1.28,0,0,0-.81.88c-0.1.3-4,16.64-4,16.92a0.61,0.61,0,0,0,.33.85c0.44,0.19,2.66,1,2.83,1s0.13,0.18-.06.18H24.62c-0.17,0-.27-0.05-0.1-0.13S26.81,52,27,51.9a1.4,1.4,0,0,0,.92-0.76C28,50.78,32,34.37,32.09,34a0.72,0.72,0,0,0-.42-1c-0.25-.1-2.7-0.93-2.77-1s-0.13-.13,0-0.13h10c0.11,0,.21.08,0.07,0.12l-2,.57c-0.19.06-.79,0.25-1.1,0.39"/><path class="cls-2" d="M53.35,47.22L48.6,45.94c-0.21-.05-0.12-0.16,0-0.16H56.3c0.31,0,1.12-.07.91,0.69s-1.39,4.43-1.48,4.68a0.89,0.89,0,0,1-.6.5"/><path class="cls-2" d="M55.12,51.65a23.09,23.09,0,0,1-6.83,1.47C40,53.34,37,47.57,38.42,42.31a13.91,13.91,0,0,1,4.85-7.18,17.73,17.73,0,0,1,10.36-3.46,24.64,24.64,0,0,1,5.23.59,0.74,0.74,0,0,1,.65,1.08c-0.06.17-2,6-2.06,6.17s-0.27.23-.27,0,0.25-5.31.23-5.53a0.84,0.84,0,0,0-.62-1.07,14,14,0,0,0-7.91.77c-5,2.34-8,7.76-7.35,12.07,0.48,3.55,3.32,6.46,7.82,6.58A9.82,9.82,0,0,0,52.1,52a0.74,0.74,0,0,0,.61-0.52c0.08-.26.85-3.44,0.87-3.57a0.48,0.48,0,0,0-.23-0.72"/><path class="cls-2" d="M18.48,42.59c0,0.43-.18.67-0.88,0.67h-5c-0.77,0-.75-0.44-0.46-0.74s5.52-5.95,5.72-6.18c0.36-.42.71-0.4,0.71,0.18s-0.09,5.79-.09,6.09m5.78,10.23c-0.23-.09-2.06-0.88-2.55-1.11a1,1,0,0,1-.58-1c0-.3.27-19.26,0.19-19.41a0.15,0.15,0,0,0-.25,0c-0.31.3-18.63,20.27-19,20.48a8.79,8.79,0,0,1-2,1,0.17,0.17,0,0,1-.1,0V53H9.78c0.13,0,.17-0.12.06-0.14C9.12,52.66,6,52,5.47,51.86S4.89,51.4,5.1,51.11s5.1-6.36,5.47-6.63a1.8,1.8,0,0,1,1.42-.4c0.25,0,1.71,0,3.12,0,1.17,0,2.31.12,2.64,0.15a0.68,0.68,0,0,1,.65.88c0,0.26-.21,4.73-0.23,5.49s-0.15.89-.65,1.07c-0.25.08-3.56,1.14-3.68,1.2s0,0.07,0,.07H24.13c0.16,0,.21-0.08.12-0.13"/><path class="cls-2" d="M74.66,42.59c0,0.43-.19.67-0.89,0.67h-5c-0.77,0-.75-0.44-0.46-0.74s5.53-5.95,5.72-6.18c0.38-.42.71-0.4,0.71,0.18s-0.08,5.79-.08,6.09m5.78,10.23c-0.23-.09-2.06-0.88-2.54-1.11a1,1,0,0,1-.58-1c0-.3.27-19.26,0.19-19.41a0.15,0.15,0,0,0-.25,0c-0.31.3-18.63,20.27-19,20.48a10,10,0,0,1-2,1c-0.08,0-.08.14,0,0.14H66c0.13,0,.15-0.12.06-0.14-0.72-.14-3.83-0.79-4.37-0.95s-0.58-.46-0.39-0.74,5.12-6.36,5.47-6.63a1.87,1.87,0,0,1,1.44-.4c0.25,0,1.71,0,3.12,0,1.17,0,2.29.12,2.64,0.15a0.69,0.69,0,0,1,.66.88c0,0.26-.22,4.73-0.23,5.49s-0.15.89-.65,1.07c-0.27.08-3.56,1.14-3.68,1.2s0,0.07,0,.07H80.32c0.15,0,.21-0.08.12-0.13"/><path class="cls-3" d="M118.16,24.9h2.65V36.35h-2.65c0.11-6.36-2.6-9.65-9-9.65-3.92,0-7.63,2.54-7.63,6.84,0,9.11,20.08,4.24,20.08,17.17,0,5.93-5.41,9.38-10.92,9.38-4.29,0-7.58-1.17-9.7-5.09h-0.11v4.56H98.23V48.11h2.65c-0.32,5.46,3.29,9.64,8.9,9.64,4,0,8.53-2.12,8.53-7,0-9.7-20.08-5.56-20.08-17.17,0-5.67,5.3-9.17,10.92-9.17,3.34,0,7,1.11,8.9,4h0.11V24.9Z"/><path class="cls-3" d="M144.18,54.79h-0.11c-1.43,3.66-5.14,5.3-8.9,5.3-4.87,0-8.48-2.44-8.48-7.63,0-6.73,7.47-7.21,12.4-7.21h5.09V43.5c0-4.24-2.38-6.31-6.68-6.31-3.66,0-6.46,1.43-6.94,5.14h-3c0.64-5.25,4.61-7.15,9.7-7.15,6.09,0,9.54,2.12,9.54,8.32v14h3.6v2h-6.25V54.79Zm-8.48,3.29c6.31,0,8.48-5.14,8.48-10.81h-5.51c-3.55,0-9,.58-9,5.35C129.66,56.06,132.47,58.08,135.7,58.08Z"/><path class="cls-3" d="M153,57.55h4.24V37.73H153v-2h6.89v3.71H160a8.27,8.27,0,0,1,7.47-4.24c9.12,0,8.53,6.78,8.53,12.19V57.55h4v2H169.09v-2h4.24V47.37c0-5.78.21-10.07-6-9.86-6.2,0-7.42,4.93-7.42,9.86V57.55h4.24v2H153v-2Z"/><path class="cls-3" d="M196.55,57.23h4.77v-30h-4.77V24.9h12.4c11.29,0,19.08,4.4,19.08,16.91,0,13.2-7.1,17.75-19.08,17.75h-12.4V57.23Zm7.74,0h4.13c10.55,0,16.32-4,16.32-15.42,0-11-6.31-14.57-16.32-14.57h-4.13v30Z"/><path class="cls-3" d="M232.38,57.55h5.3V37.73h-5.3v-2h7.95V57.55h4.24v2H232.38v-2Zm7.95-27.72H237v-3.6h3.29v3.6Z"/><path class="cls-3" d="M251.08,48.11c0,5.78,2.86,10,8.8,10,3.66,0,7.15-1.91,7.84-5.83h2.65C270,57.49,264.7,60.09,260,60.09c-7.79,0-11.92-4.56-11.92-13,0-6.68,3.87-11.92,11.5-11.92,7.95,0,11.45,5.62,11.13,12.93H251.08Zm16.69-2c-0.11-5.09-3-8.9-8.37-8.9-5,0-8.06,4-8.32,8.9h16.69Z"/><path class="cls-3" d="M301.48,37.73H297.4V57.65c0,7.15-2.75,11.18-11,11.18-4.45,0-9.91-1.64-9.86-7h2.65c0.58,3.87,4.13,5,7.42,5,6.68,0,8.11-4.19,8.11-10.17V54.42h-0.11c-2,3.5-4.77,4.82-8.74,4.82C279.23,59.24,275,54,275,47.37s3.45-12.19,10.81-12.19c3.76,0,7.1,1.32,8.85,4.77h0.11V35.71h6.73v2Zm-15,19.5c6.36,0,8.32-5.14,8.27-10.39S292,37.2,286.49,37.2,278,42,278,46.84C278,52.51,280.76,57.23,286.49,57.23Z"/><path class="cls-3" d="M316.06,35.18c6.94,0,11.34,5,11.34,12.45S323,60.09,316.06,60.09s-11.34-5-11.34-12.45S309.12,35.18,316.06,35.18Zm0,22.89c2.65,0,8.37-1.59,8.37-10.44s-5.72-10.44-8.37-10.44-8.37,1.59-8.37,10.44S313.41,58.08,316.06,58.08Z"/></svg>