<svg id="Layer_2" data-name="Layer 2" xmlns="http://www.w3.org/2000/svg" viewBox="0 0 1280 904.61">
  <defs>
    <style>
      .cls-1 {
        fill: #ff6c36;
      }

      .cls-2 {
        fill: #fff;
      }

      .cls-3 {
        fill: #fab699;
      }

      .cls-4 {
        fill: #101e8e;
      }
    </style>
  </defs>
  <title>heading</title>
  <polygon class="cls-1" points="0 0 640 241.65 640 655.63 0.52 793.62 0 0"/>
  <g>
    <path class="cls-2" d="M428.88,553.39H364.42V332.24h57c10.12,0,57,2.6,57,50,0,0,.29,107.25.29,120.55C478.61,531.13,460.69,553.39,428.88,553.39Zm11.85-159.87c0-19.66-7.52-28.91-22-28.91H401.71V521.3H424c7.81,0,16.77-6.65,16.77-19.08V393.52Z"/>
    <path class="cls-2" d="M503.51,553.39V332.24H542V553.39H503.51Z"/>
    <path class="cls-2" d="M623.22,558.31c-32.38,0-57.24-16.77-57.24-53.77V479.67h39V506c0,9.54,5.49,19.66,18.5,19.66,14.17,0,18.5-9,18.5-19.08,0,0,.29-4.34,0-18.21-0.87-30.64-74.59-39-74.59-89V372.42c0-26.6,25.73-45.1,54.64-45.1,27.46,0,56.66,16.48,56.66,45.39v31.22H640.27s0.29-23.42.29-25.73c0-4.62-1.45-17.35-18.21-17.35-12.43,0-16.48,10.12-16.48,16.19v12.72c0,40.47,76.32,39.9,76.32,93.09v27.46C682.19,543.85,649.81,558.31,623.22,558.31Z"/>
  </g>
  <polygon class="cls-3" points="1280 99.15 640 241.65 640 724.62 1280 904.61 1280 99.15"/>
  <g>
    <path class="cls-2" d="M751.62,364.9V553.39H712.3V365.48H669.51V332.24h124V364.9H751.62Z"/>
    <path class="cls-2" d="M813.77,553.39V332.24h38.45V553.39H813.77Z"/>
    <path class="cls-2" d="M876.12,553.39V332.24h38.16V521h60.13v32.38H876.12Z"/>
    <path class="cls-2" d="M994.65,553.39V332.24h38.16V521h60.13v32.38H994.65Z"/>
  </g>
  <g>
    <g>
      <path class="cls-4" d="M67.32,306L66,300.82H58.88L57.52,306H51.11l7.33-24.89h8L73.73,306H67.32Zm-4.86-19.12L60,296h4.86Z"/>
      <path class="cls-4" d="M83.41,298.91H82.09V306H76V281.15h7.41c6.49,0,10,3.58,10,8.88S89.94,298.91,83.41,298.91Zm-0.32-12.7H82V294h1.12c2.67,0,4.06-1.35,4.06-3.9S85.76,286.21,83.09,286.21Z"/>
      <path class="cls-4" d="M108.33,306l-3.9-8.24-1.63.2v8H96.74V281.15h7.45c6.49,0,10,3.35,10,8.32a7.23,7.23,0,0,1-4.1,6.81L115.1,306h-6.77Zm-4.54-19.83h-1.12v7.09l1.19,0c2.63,0,4-1.23,4-3.54S106.46,286.21,103.79,286.21Z"/>
      <path class="cls-4" d="M118,306V281.15h6.05V306H118Z"/>
      <path class="cls-4" d="M128.72,306V281.15h6.05v19.79h7.93V306h-14Z"/>
    </g>
    <g>
      <path class="cls-4" d="M162.85,306.56c-4.54,0-8.24-5.48-8.24-12.9s3.7-12.85,8.24-12.85,8.28,5.43,8.28,12.85S167.43,306.56,162.85,306.56Zm0-23.81c-3.9,0-6.69,4.86-6.69,10.91s2.79,11,6.69,11,6.73-4.91,6.73-11S166.79,282.75,162.85,282.75Z"/>
      <path class="cls-4" d="M179.26,283.8l-4.62,2.56-0.12-2,6.29-3.45V306h-1.55V283.8Z"/>
      <path class="cls-4" d="M194.48,300.57l2.71,5.22-0.74.63L194,301.57c-1.15,2.8-2.81,4.78-4.56,4.78-2.26,0-3.67-2.52-3.67-5.16a6.21,6.21,0,0,1,3.26-5.7,5.91,5.91,0,0,1-2.23-4.66c0-2.45,1.44-4.75,3.46-4.75,1.82,0,3.22,2,3.22,4.44a5.56,5.56,0,0,1-2.78,5,13.13,13.13,0,0,1,3.34,4.22l2.38-5.82h1.08ZM189.63,296a6.17,6.17,0,0,0-2.93,5.22c0,2.08,1.13,4.06,2.86,4.06,1.37,0,2.78-1.82,4-4.5C192,297.92,191,297,189.63,296Zm0.53-8.78c-1.49,0-2.4,1.7-2.4,3.59a4.85,4.85,0,0,0,2.3,4.28,4.93,4.93,0,0,0,2.47-4.4C192.53,288.8,191.5,287.2,190.16,287.2Z"/>
      <path class="cls-4" d="M208.14,306.56c-4.54,0-8.24-5.48-8.24-12.9s3.7-12.85,8.24-12.85,8.28,5.43,8.28,12.85S212.72,306.56,208.14,306.56Zm0-23.81c-3.9,0-6.69,4.86-6.69,10.91s2.79,11,6.69,11,6.73-4.91,6.73-11S212.08,282.75,208.14,282.75Z"/>
      <path class="cls-4" d="M220.17,306V303.8c6.49-7.68,9.16-11.07,9.16-15.35,0-3.13-1.51-5.69-3.82-5.69-1.63,0-3.31,1.25-4.7,3l-0.64-1.67c1.59-1.93,3.38-3.24,5.42-3.24,3.15,0,5.3,3.13,5.3,7.31,0,5.8-4.18,10.13-8.92,15.93h9.72v2H220.17Z"/>
      <path class="cls-4" d="M244.18,306V303.8c6.49-7.68,9.16-11.07,9.16-15.35,0-3.13-1.51-5.69-3.82-5.69-1.63,0-3.31,1.25-4.7,3l-0.64-1.67c1.59-1.93,3.38-3.24,5.42-3.24,3.15,0,5.3,3.13,5.3,7.31,0,5.8-4.18,10.13-8.92,15.93h9.72v2H244.18Z"/>
      <path class="cls-4" d="M267.31,306.56c-4.54,0-8.24-5.48-8.24-12.9s3.7-12.85,8.24-12.85,8.28,5.43,8.28,12.85S271.89,306.56,267.31,306.56Zm0-23.81c-3.9,0-6.69,4.86-6.69,10.91s2.79,11,6.69,11,6.73-4.91,6.73-11S271.26,282.75,267.31,282.75Z"/>
      <path class="cls-4" d="M283.72,283.8l-4.62,2.56-0.12-2,6.29-3.45V306h-1.55V283.8Z"/>
      <path class="cls-4" d="M298.25,306.56c-4.42,0-7-5.9-7-12.64,0-8.35,3.58-18,12-21.2l0.36,1.83c-6.53,2.35-9.88,9.35-10.71,16.13l0,0.05c1.63-2.25,3.66-4,5.93-4,3.07,0,6.05,2.82,6.05,9.19S302.36,306.56,298.25,306.56Zm0.48-18c-2.19,0-4,1.31-5.85,4.18,0,0.42,0,.78,0,1.2,0,5.69,2,10.76,5.38,10.76,3.19,0,5.18-3.71,5.18-8.72C303.39,291.21,301.2,288.6,298.73,288.6Z"/>
    </g>
    <g>
      <path class="cls-4" d="M80.15,348.25a5.71,5.71,0,0,1-3.14-1l0.21-1.06a5.15,5.15,0,0,0,2.93,1.12c2,0,3.11-1.53,3.11-4.36V331.77h1V343C84.3,346.22,83,348.25,80.15,348.25Z"/>
      <path class="cls-4" d="M92.11,348.25c-2.78,0-4.93-2.39-4.93-6.15s2.26-6.26,5-6.26,4.93,2.39,4.93,6.15S94.86,348.25,92.11,348.25Zm0.05-11.47c-2.28,0-4,2.21-4,5.27,0,3.25,1.69,5.27,4,5.27s3.95-2.21,3.95-5.27C96.11,338.8,94.42,336.78,92.16,336.78Z"/>
      <path class="cls-4" d="M107.39,348.2a1.65,1.65,0,0,1-1.87-1.82h0a3.93,3.93,0,0,1-3.14,1.87,3,3,0,0,1-3.17-3.14c0-2.21,1.51-3.84,6.23-4.21v-1.09c0-1.82-.78-3-2.49-3a5.55,5.55,0,0,0-3.37,1.51l-0.23-1a6.62,6.62,0,0,1,3.71-1.45c2,0,3.4,1.09,3.4,3.87v6.39c0,0.73.1,1.32,1,1.3Zm-2-6.52c-3.92.47-5.22,1.58-5.22,3.32a2.19,2.19,0,0,0,2.31,2.31,3.88,3.88,0,0,0,2.91-1.92v-3.71Z"/>
      <path class="cls-4" d="M117,348v-7.92c0-2.1-.73-3.27-2.34-3.27a4.9,4.9,0,0,0-3.43,2.05V348h-1V336.18l1-.34v2.05a5.19,5.19,0,0,1,3.61-2.05c2,0,3.17,1.4,3.17,4V348h-1Z"/>
      <path class="cls-4" d="M132.2,348h-4.31V331.77H132c3.32,0,4.62,1.74,4.62,4.15a3.78,3.78,0,0,1-3,3.84,3.67,3.67,0,0,1,3.43,3.79C137.05,346.09,135.65,348,132.2,348Zm-0.34-15.26h-2.93v6.67h2.8c2.18,0,3.82-1.14,3.82-3.4C135.55,334,134.48,332.73,131.86,332.73Zm-0.13,7.6h-2.8V347h3.22c2.83,0,3.84-1.48,3.84-3.5S134.74,340.33,131.73,340.33Z"/>
      <path class="cls-4" d="M139.72,348.25a0.92,0.92,0,0,1-.88-1,0.89,0.89,0,0,1,.88-0.93,0.91,0.91,0,0,1,.91.93A0.94,0.94,0,0,1,139.72,348.25Z"/>
      <path class="cls-4" d="M157.73,348l-7-7.84h0V348h-1V331.77h1v7.81h0l6.93-7.81H159l-7.22,8,7.32,8.2h-1.38Z"/>
      <path class="cls-4" d="M167.2,337.29a2.48,2.48,0,0,0-1.45-.49c-1.17,0-2.31,1.06-3.09,3.69V348h-1V336.18l1-.34v2.91c0.62-1.69,1.76-2.91,3.06-2.91a3.41,3.41,0,0,1,1.79.49Z"/>
      <path class="cls-4" d="M173.48,348.25c-2.78,0-4.93-2.39-4.93-6.15s2.26-6.26,5-6.26,4.93,2.39,4.93,6.15S176.23,348.25,173.48,348.25Zm0.05-11.47c-2.28,0-4,2.21-4,5.27,0,3.25,1.69,5.27,4,5.27s3.95-2.21,3.95-5.27C177.48,338.8,175.79,336.78,173.53,336.78Z"/>
      <path class="cls-4" d="M185.7,348.25c-2.88,0-4.93-2.54-4.93-6.15s2-6.26,4.83-6.26a5,5,0,0,1,3.06,1l-0.29,1a4.53,4.53,0,0,0-2.75-1c-2.26,0-3.84,2.23-3.84,5.24s1.56,5.24,3.95,5.24a4.42,4.42,0,0,0,2.62-1l0.29,1A5.12,5.12,0,0,1,185.7,348.25Z"/>
      <path class="cls-4" d="M198,348V331.77h1V348h-1Z"/>
      <path class="cls-4" d="M209.91,348v-7.92c0-2.1-.73-3.27-2.34-3.27a4.9,4.9,0,0,0-3.43,2.05V348h-1V336.18l1-.34v2.05a5.19,5.19,0,0,1,3.61-2.05c2,0,3.17,1.4,3.17,4V348h-1Z"/>
      <path class="cls-4" d="M216.89,348.25a5.37,5.37,0,0,1-3.11-1l0.29-.93a4.68,4.68,0,0,0,2.8,1,2.39,2.39,0,0,0,2.54-2.34c0-1.4-.7-1.95-2.62-2.67-1.35-.52-2.88-1.3-2.88-3.27a3,3,0,0,1,3.22-3.22,6,6,0,0,1,2.91.86l-0.31.91a4.74,4.74,0,0,0-2.62-.88,2.09,2.09,0,0,0-2.23,2.21c0,1.56,1.25,2.08,2.54,2.57,2.15,0.8,2.93,1.79,2.93,3.4A3.27,3.27,0,0,1,216.89,348.25Z"/>
      <path class="cls-4" d="M225.76,348.3c-1.92,0-2.62-1.37-2.57-3.79l0.18-7.32-1.4-.1,0.05-.67,1.38-.21,0.05-2.83h1l-0.05,2.85H228l-0.05.91h-3.56l-0.18,7.4c-0.05,1.95.44,2.8,1.63,2.8a3.85,3.85,0,0,0,2-.67l0.21,0.88A4.5,4.5,0,0,1,225.76,348.3Z"/>
      <path class="cls-4" d="M231.34,333.27a0.77,0.77,0,0,1-.73-0.83,0.74,0.74,0,0,1,.73-0.78,0.76,0.76,0,0,1,.75.78A0.79,0.79,0,0,1,231.34,333.27ZM230.85,348V336.18l1-.34V348h-1Z"/>
      <path class="cls-4" d="M238.14,348.3c-1.92,0-2.62-1.37-2.57-3.79l0.18-7.32-1.4-.1,0.05-.67,1.38-.21,0.05-2.83h1l-0.05,2.85h3.58l-0.05.91h-3.56l-0.18,7.4c-0.05,1.95.44,2.8,1.63,2.8a3.85,3.85,0,0,0,2-.67l0.21,0.88A4.5,4.5,0,0,1,238.14,348.3Z"/>
      <path class="cls-4" d="M249.84,348.25V346.2a5.19,5.19,0,0,1-3.61,2.05c-2,0-3.17-1.4-3.17-4V336.1h1V344c0,2.1.73,3.27,2.34,3.27a4.91,4.91,0,0,0,3.43-2.05V336.1h1v11.81Z"/>
      <path class="cls-4" d="M257.08,348.3c-1.92,0-2.62-1.37-2.57-3.79l0.18-7.32-1.4-.1,0.05-.67,1.38-.21,0.05-2.83h1l-0.05,2.85h3.58l-0.05.91h-3.56l-0.18,7.4c-0.05,1.95.44,2.8,1.63,2.8a3.85,3.85,0,0,0,2-.67l0.21,0.88A4.5,4.5,0,0,1,257.08,348.3Z"/>
      <path class="cls-4" d="M269.1,341.81l-6.88.08V342c0,3,1.4,5.24,3.69,5.24a4.64,4.64,0,0,0,2.8-1l0.29,1a5.19,5.19,0,0,1-3.11,1c-2.8,0-4.67-2.54-4.67-6.15s1.89-6.26,4.57-6.26c2,0,3.56,1.56,3.56,4.1A10.82,10.82,0,0,1,269.1,341.81Zm-3.35-5c-1.87,0-3.17,1.74-3.48,4.15l6,0a5.33,5.33,0,0,0,.08-0.91C268.34,338.15,267.33,336.8,265.75,336.8Z"/>
      <path class="cls-4" d="M282.74,331.35a2.53,2.53,0,0,0-1.48-.49c-1.19,0-1.82,1-1.82,3v2.34h3.09l-0.05.91h-3V348h-1V337.17l-1.4-.08,0.05-.67,1.35-.21,0-2.26c0-3,1.22-4,2.8-4a3.58,3.58,0,0,1,1.71.47Z"/>
      <path class="cls-4" d="M288.43,348.25c-2.78,0-4.93-2.39-4.93-6.15s2.26-6.26,5-6.26,4.93,2.39,4.93,6.15S291.18,348.25,288.43,348.25Zm0.05-11.47c-2.28,0-4,2.21-4,5.27,0,3.25,1.69,5.27,4,5.27s3.95-2.21,3.95-5.27C292.42,338.8,290.74,336.78,288.48,336.78Z"/>
      <path class="cls-4" d="M302,337.29a2.48,2.48,0,0,0-1.45-.49c-1.17,0-2.31,1.06-3.09,3.69V348h-1V336.18l1-.34v2.91c0.62-1.69,1.76-2.91,3.06-2.91a3.41,3.41,0,0,1,1.79.49Z"/>
      <path class="cls-4" d="M147,373.05l-1.95,0v6h-1V362.9h3.24c3.5,0,5.29,1.92,5.29,4.88C152.59,371.24,150.47,373,147,373.05Zm0.23-9.19h-2.18v8.25l1.95,0c2.85-.05,4.52-1.3,4.52-4.28C151.56,365.37,150,363.86,147.27,363.86Z"/>
      <path class="cls-4" d="M162.25,372.95l-6.88.08v0.16c0,3,1.4,5.24,3.69,5.24a4.64,4.64,0,0,0,2.8-1l0.29,1a5.19,5.19,0,0,1-3.11,1c-2.8,0-4.67-2.54-4.67-6.15s1.89-6.25,4.57-6.25c2,0,3.56,1.56,3.56,4.1A10.81,10.81,0,0,1,162.25,372.95Zm-3.35-5c-1.87,0-3.17,1.74-3.48,4.15l6,0a5.33,5.33,0,0,0,.08-0.91C161.49,369.29,160.48,367.94,158.9,367.94Z"/>
      <path class="cls-4" d="M173,379.33a1.65,1.65,0,0,1-1.87-1.82h0a3.93,3.93,0,0,1-3.14,1.87,3,3,0,0,1-3.17-3.14c0-2.21,1.51-3.84,6.23-4.21V371c0-1.82-.78-3-2.49-3a5.55,5.55,0,0,0-3.37,1.51l-0.23-1A6.61,6.61,0,0,1,168.6,367c2,0,3.4,1.09,3.4,3.87v6.39c0,0.73.1,1.32,1,1.3Zm-2-6.51c-3.92.47-5.22,1.58-5.22,3.32a2.19,2.19,0,0,0,2.31,2.31,3.88,3.88,0,0,0,2.91-1.92v-3.71Z"/>
      <path class="cls-4" d="M179.92,379.39c-2.88,0-4.93-2.54-4.93-6.15s2-6.25,4.83-6.25a5,5,0,0,1,3.06,1l-0.29,1a4.53,4.53,0,0,0-2.75-1c-2.26,0-3.84,2.23-3.84,5.24s1.56,5.24,3.95,5.24a4.42,4.42,0,0,0,2.62-1l0.29,1A5.13,5.13,0,0,1,179.92,379.39Z"/>
      <path class="cls-4" d="M193,372.95l-6.88.08v0.16c0,3,1.4,5.24,3.69,5.24a4.64,4.64,0,0,0,2.8-1l0.29,1a5.19,5.19,0,0,1-3.11,1c-2.8,0-4.67-2.54-4.67-6.15S187,367,189.7,367c2,0,3.56,1.56,3.56,4.1A10.81,10.81,0,0,1,193,372.95Zm-3.35-5c-1.87,0-3.17,1.74-3.48,4.15l6,0a5.33,5.33,0,0,0,.08-0.91C192.27,369.29,191.25,367.94,189.67,367.94Z"/>
      <path class="cls-4" d="M209.7,379.33a1.65,1.65,0,0,1-1.87-1.82h0a3.93,3.93,0,0,1-3.14,1.87,3,3,0,0,1-3.17-3.14c0-2.21,1.51-3.84,6.23-4.21V371c0-1.82-.78-3-2.49-3a5.55,5.55,0,0,0-3.37,1.51l-0.23-1a6.61,6.61,0,0,1,3.71-1.45c2,0,3.4,1.09,3.4,3.87v6.39c0,0.73.1,1.32,1,1.3Zm-2-6.51c-3.92.47-5.22,1.58-5.22,3.32a2.19,2.19,0,0,0,2.31,2.31,3.88,3.88,0,0,0,2.91-1.92v-3.71Z"/>
      <path class="cls-4" d="M219.28,379.13v-7.92c0-2.1-.73-3.27-2.34-3.27a4.91,4.91,0,0,0-3.43,2.05v9.14h-1V367.32l1-.34v2a5.19,5.19,0,0,1,3.61-2c2,0,3.17,1.4,3.17,4v8.13h-1Z"/>
      <path class="cls-4" d="M230.88,379.13v-1.19a4.47,4.47,0,0,1-3.09,1.45c-2.65,0-4.54-2.39-4.54-6,0-3.79,2.08-6.25,4.91-6.25a4.86,4.86,0,0,1,2.73.88v-6.36l1-.34v17.83h-1Zm0-10.1a4.44,4.44,0,0,0-2.75-1c-2.28,0-3.87,2.13-3.87,5.32,0,2.88,1.43,5.06,3.71,5.06a4.12,4.12,0,0,0,2.91-1.51V369Z"/>
      <path class="cls-4" d="M243.25,379.39a5.7,5.7,0,0,1-3.14-1l0.21-1.06a5.15,5.15,0,0,0,2.93,1.12c2,0,3.11-1.53,3.11-4.36V362.9h1v11.19C247.4,377.36,246.13,379.39,243.25,379.39Z"/>
      <path class="cls-4" d="M257.73,379.39v-2.05a5.19,5.19,0,0,1-3.61,2.05c-2,0-3.17-1.4-3.17-4v-8.12h1v7.92c0,2.1.73,3.27,2.34,3.27a4.91,4.91,0,0,0,3.43-2.05v-9.14h1V379Z"/>
      <path class="cls-4" d="M264.81,379.39a5.37,5.37,0,0,1-3.11-1l0.29-.93a4.68,4.68,0,0,0,2.8,1,2.39,2.39,0,0,0,2.54-2.34c0-1.4-.7-1.95-2.62-2.67-1.35-.52-2.88-1.3-2.88-3.27A3,3,0,0,1,265,367a6,6,0,0,1,2.91.86l-0.31.91a4.74,4.74,0,0,0-2.62-.88,2.09,2.09,0,0,0-2.23,2.21c0,1.56,1.25,2.08,2.54,2.57,2.15,0.8,2.93,1.79,2.93,3.4A3.27,3.27,0,0,1,264.81,379.39Z"/>
      <path class="cls-4" d="M273.69,379.44c-1.92,0-2.62-1.37-2.57-3.79l0.18-7.32-1.4-.1,0.05-.67,1.38-.21,0.05-2.83h1l-0.05,2.86h3.58l-0.05.91h-3.56l-0.18,7.4c-0.05,1.95.44,2.8,1.63,2.8a3.86,3.86,0,0,0,2-.67l0.21,0.88A4.51,4.51,0,0,1,273.69,379.44Z"/>
      <path class="cls-4" d="M279.27,364.41a0.77,0.77,0,0,1-.73-0.83,0.74,0.74,0,0,1,.73-0.78,0.76,0.76,0,0,1,.75.78A0.79,0.79,0,0,1,279.27,364.41Zm-0.49,14.72V367.32l1-.34v12.15h-1Z"/>
      <path class="cls-4" d="M287.83,379.39c-2.88,0-4.93-2.54-4.93-6.15s2-6.25,4.83-6.25a5,5,0,0,1,3.06,1l-0.29,1a4.53,4.53,0,0,0-2.75-1c-2.26,0-3.84,2.23-3.84,5.24s1.56,5.24,3.95,5.24a4.42,4.42,0,0,0,2.62-1l0.29,1A5.13,5.13,0,0,1,287.83,379.39Z"/>
      <path class="cls-4" d="M300.93,372.95l-6.88.08v0.16c0,3,1.4,5.24,3.69,5.24a4.64,4.64,0,0,0,2.8-1l0.29,1a5.19,5.19,0,0,1-3.11,1c-2.8,0-4.67-2.54-4.67-6.15s1.89-6.25,4.57-6.25c2,0,3.56,1.56,3.56,4.1A10.81,10.81,0,0,1,300.93,372.95Zm-3.35-5c-1.87,0-3.17,1.74-3.48,4.15l6,0a5.33,5.33,0,0,0,.08-0.91C300.18,369.29,299.17,367.94,297.59,367.94Z"/>
      <path class="cls-4" d="M100.26,410.52c-3.22,0-5.06-2.31-5.06-6.12V394h1v10.28c0,3.24,1.38,5.24,4,5.24s4-2,4-5.24V394h1V404.4C105.32,408.21,103.48,410.52,100.26,410.52Z"/>
      <path class="cls-4" d="M115.75,410.26v-7.92c0-2.1-.73-3.27-2.34-3.27a4.91,4.91,0,0,0-3.43,2v9.14h-1V398.45l1-.34v2a5.19,5.19,0,0,1,3.61-2c2,0,3.17,1.4,3.17,4v8.12h-1Z"/>
      <path class="cls-4" d="M121,395.55a0.77,0.77,0,0,1-.73-0.83,0.74,0.74,0,0,1,.73-0.78,0.76,0.76,0,0,1,.75.78A0.79,0.79,0,0,1,121,395.55Zm-0.49,14.72V398.45l1-.34v12.15h-1Z"/>
      <path class="cls-4" d="M128.72,410.29h-0.93l-4-11.91h1.06l3.4,10.36,3.4-10.36h1Z"/>
      <path class="cls-4" d="M142,404.09l-6.88.08v0.16c0,3,1.4,5.24,3.69,5.24a4.64,4.64,0,0,0,2.8-1l0.29,1a5.2,5.2,0,0,1-3.11,1c-2.8,0-4.67-2.54-4.67-6.15s1.89-6.25,4.57-6.25c2,0,3.56,1.56,3.56,4.1A10.78,10.78,0,0,1,142,404.09Zm-3.35-5c-1.87,0-3.17,1.74-3.48,4.15l6,0a5.32,5.32,0,0,0,.08-0.91C141.23,400.43,140.22,399.08,138.63,399.08Z"/>
      <path class="cls-4" d="M151,399.57a2.47,2.47,0,0,0-1.45-.49c-1.17,0-2.31,1.06-3.09,3.69v7.5h-1V398.45l1-.34V401c0.62-1.69,1.76-2.91,3.06-2.91a3.41,3.41,0,0,1,1.79.49Z"/>
      <path class="cls-4" d="M155.66,410.52a5.38,5.38,0,0,1-3.11-1l0.29-.93a4.67,4.67,0,0,0,2.8,1,2.39,2.39,0,0,0,2.54-2.34c0-1.4-.7-1.95-2.62-2.67-1.35-.52-2.88-1.3-2.88-3.27a3,3,0,0,1,3.22-3.22,6,6,0,0,1,2.91.86l-0.31.91a4.74,4.74,0,0,0-2.62-.88,2.09,2.09,0,0,0-2.23,2.21c0,1.56,1.25,2.08,2.54,2.57,2.15,0.8,2.93,1.79,2.93,3.4A3.27,3.27,0,0,1,155.66,410.52Z"/>
      <path class="cls-4" d="M162.69,395.55a0.77,0.77,0,0,1-.73-0.83,0.74,0.74,0,0,1,.73-0.78,0.76,0.76,0,0,1,.75.78A0.79,0.79,0,0,1,162.69,395.55Zm-0.49,14.72V398.45l1-.34v12.15h-1Z"/>
      <path class="cls-4" d="M169.49,410.57c-1.92,0-2.62-1.38-2.57-3.79l0.18-7.32-1.4-.1,0.05-.67,1.38-.21,0.05-2.83h1l-0.05,2.86h3.58l-0.05.91h-3.56l-0.18,7.4c-0.05,1.95.44,2.8,1.63,2.8a3.85,3.85,0,0,0,2-.68l0.21,0.88A4.51,4.51,0,0,1,169.49,410.57Z"/>
      <path class="cls-4" d="M177.71,409.87l-1,3c-0.88,2.78-1.84,3.53-3.09,3.53a3.38,3.38,0,0,1-1.79-.47l0.29-1a2.58,2.58,0,0,0,1.48.47c0.75,0,1.45-.52,2.21-2.93l0.78-2.41-4-11.76h1.09l3.48,10.33,3.3-10.33h1.09Z"/>
      <path class="cls-4" d="M193.75,410.52c-2.78,0-4.93-2.39-4.93-6.15s2.26-6.25,5-6.25,4.93,2.39,4.93,6.15S196.5,410.52,193.75,410.52ZM193.8,399c-2.28,0-4,2.21-4,5.27,0,3.24,1.69,5.27,4,5.27s3.95-2.21,3.95-5.27C197.74,401.08,196.06,399,193.8,399Z"/>
      <path class="cls-4" d="M206,393.63a2.52,2.52,0,0,0-1.48-.49c-1.19,0-1.82,1-1.82,3v2.34h3.09l-0.05.91h-3v10.85h-1V399.44l-1.4-.08,0.05-.67,1.35-.21,0-2.26c0-3,1.22-4,2.8-4a3.57,3.57,0,0,1,1.71.47Z"/>
      <path class="cls-4" d="M217.28,410.52A6.85,6.85,0,0,1,213,409l0.42-.91a6.15,6.15,0,0,0,3.87,1.45,3.39,3.39,0,0,0,3.5-3.4c0-2.18-1.61-3-3.63-3.84s-3.92-1.74-3.92-4.36a4.14,4.14,0,0,1,4.26-4.2,6.54,6.54,0,0,1,4,1.38l-0.42.93a5.8,5.8,0,0,0-3.56-1.37,3.1,3.1,0,0,0-3.27,3.19c0,2,1.53,2.75,3.56,3.56s4,1.82,4,4.62A4.35,4.35,0,0,1,217.28,410.52Z"/>
      <path class="cls-4" d="M232,410.47a1.65,1.65,0,0,1-1.87-1.82h0a3.93,3.93,0,0,1-3.14,1.87,3,3,0,0,1-3.17-3.14c0-2.21,1.51-3.84,6.23-4.21v-1.09c0-1.82-.78-3-2.49-3a5.55,5.55,0,0,0-3.37,1.5l-0.23-1a6.61,6.61,0,0,1,3.71-1.45c2,0,3.4,1.09,3.4,3.87v6.38c0,0.73.1,1.32,1,1.3ZM230,404c-3.92.47-5.22,1.58-5.22,3.32a2.19,2.19,0,0,0,2.31,2.31,3.88,3.88,0,0,0,2.91-1.92V404Z"/>
      <path class="cls-4" d="M241.59,410.26v-7.92c0-2.1-.73-3.27-2.34-3.27a4.91,4.91,0,0,0-3.43,2v9.14h-1V398.45l1-.34v2a5.19,5.19,0,0,1,3.61-2c2,0,3.17,1.4,3.17,4v8.12h-1Z"/>
      <path class="cls-4" d="M255.79,410.26h-3.27V394h3.4c4.49,0,7.35,3.27,7.35,8C263.26,407.28,260.46,410.26,255.79,410.26Zm0-15.26h-2.26v14.3h2.26c3.74,0,6.41-2.23,6.41-7.16C262.22,397.86,259.83,395,255.81,395Z"/>
      <path class="cls-4" d="M266.94,395.55a0.77,0.77,0,0,1-.73-0.83,0.74,0.74,0,0,1,.73-0.78,0.76,0.76,0,0,1,.75.78A0.79,0.79,0,0,1,266.94,395.55Zm-0.49,14.72V398.45l1-.34v12.15h-1Z"/>
      <path class="cls-4" d="M278.46,404.09l-6.88.08v0.16c0,3,1.4,5.24,3.69,5.24a4.64,4.64,0,0,0,2.8-1l0.29,1a5.2,5.2,0,0,1-3.11,1c-2.8,0-4.67-2.54-4.67-6.15s1.89-6.25,4.57-6.25c2,0,3.56,1.56,3.56,4.1A10.78,10.78,0,0,1,278.46,404.09Zm-3.35-5c-1.87,0-3.17,1.74-3.48,4.15l6,0a5.32,5.32,0,0,0,.08-0.91C277.71,400.43,276.7,399.08,275.12,399.08Z"/>
      <path class="cls-4" d="M287.7,399.54a4.78,4.78,0,0,1,1,2.93c0,2.7-1.69,4.39-3.89,4.39a3.54,3.54,0,0,1-1.56-.39,2,2,0,0,0-1.22,1.63c0,0.78.57,1.35,2.23,1.35H286c2.88,0,4,1.22,4,3,0,2.6-2.62,4.23-5.22,4.23-2.8,0-4.49-1.48-4.49-3.45a3.55,3.55,0,0,1,2.26-3.14,1.81,1.81,0,0,1-1.45-1.76,2.66,2.66,0,0,1,1.61-2.21,4.6,4.6,0,0,1-1.61-3.58c0-2.72,1.74-4.44,3.89-4.44a3.47,3.47,0,0,1,2.21.7l3-.21,0.08,1.06Zm-1.82,10.88c-0.67,0-1.64,0-2.34-.05a3.08,3.08,0,0,0-2.28,2.78c0,1.53,1.25,2.7,3.58,2.7s4.13-1.48,4.13-3.24C289,411.07,287.86,410.42,285.88,410.42Zm-1-11.45c-1.76,0-2.8,1.56-2.8,3.58,0,1.87,1,3.45,2.8,3.45s2.8-1.5,2.8-3.48S286.71,399,284.9,399Z"/>
      <path class="cls-4" d="M296.37,410.52c-2.78,0-4.93-2.39-4.93-6.15s2.26-6.25,5-6.25,4.93,2.39,4.93,6.15S299.12,410.52,296.37,410.52ZM296.42,399c-2.28,0-4,2.21-4,5.27,0,3.24,1.69,5.27,4,5.27s3.95-2.21,3.95-5.27C300.36,401.08,298.68,399,296.42,399Z"/>
    </g>
  </g>
  <g>
    <path class="cls-2" d="M723.7,616.43H712.11V576.67h10.24c1.82,0,10.24.47,10.24,9,0,0,.05,19.28.05,21.67C732.63,612.42,729.41,616.43,723.7,616.43Zm2.13-28.74c0-3.53-1.35-5.2-4-5.2h-3.07v28.17h4a3.19,3.19,0,0,0,3-3.43V587.69Z"/>
    <path class="cls-2" d="M737.83,616.43V576.67h17.72l0.05,6H744.8v9.56l6.76-.05v5.87H744.8v12.53l11.54-.05v5.87h-18.5Z"/>
    <path class="cls-2" d="M770.27,617.31c-5.82,0-10.29-3-10.29-9.67v-4.47h7v4.73a3.26,3.26,0,0,0,3.33,3.53c2.55,0,3.33-1.61,3.33-3.43,0,0,.05-0.78,0-3.27-0.16-5.51-13.41-7-13.41-16v-4.83c0-4.78,4.63-8.11,9.82-8.11,4.94,0,10.19,3,10.19,8.16v5.61h-6.91s0.05-4.21.05-4.63a2.93,2.93,0,0,0-3.27-3.12,2.85,2.85,0,0,0-3,2.91V587c0,7.28,13.72,7.17,13.72,16.74v4.94C780.87,614.71,775,617.31,770.27,617.31Z"/>
    <path class="cls-2" d="M785.55,616.43V576.67h6.91v39.76h-6.91Z"/>
    <path class="cls-2" d="M812.42,616.43v-2.23c-0.62,1-1.66,3.12-5.87,3.12-7.22,0-8.89-4.42-8.89-8.58V585.4c0-5.87,4.16-9.61,10.29-9.61,5.82,0,10.29,3.43,10.29,9.15v5.25h-6.86v-5.35a3,3,0,0,0-3.27-3.22,3.07,3.07,0,0,0-3.38,3.22v23.28c0,1.82.94,3.43,3.69,3.43a3.09,3.09,0,0,0,3.33-3.43l-0.05-7.8H807.9V594.6h10.65v21.83h-6.13Z"/>
    <path class="cls-2" d="M844.23,616.43l-6.86-.05L830,592.21l-0.05,24.22h-6.18V576.67h7.64L837.79,596l0.05-19.28h6.39v39.76Z"/>
    <path class="cls-2" d="M887.58,616.43h-6.7l-3.22-21.36-3.53,21.36h-6.34l-6.39-39.76h6.39L871.26,598l3.38-21.36h5.87L884.1,598l3.27-21.36H894Z"/>
    <path class="cls-2" d="M897.09,616.43V576.67H904v39.76h-6.91Z"/>
    <path class="cls-2" d="M922.4,582.54v33.89h-7.07V582.65h-7.69v-6h22.3v5.87H922.4Z"/>
    <path class="cls-2" d="M947.61,616.43V598h-7.17v18.45h-6.86V576.67h6.91v15.59l7.12-.05V576.67h6.91v39.76h-6.91Z"/>
    <path class="cls-2" d="M983.53,617.31c-5.82,0-10.29-3-10.29-9.67v-4.47h7v4.73a3.26,3.26,0,0,0,3.33,3.53c2.55,0,3.33-1.61,3.33-3.43,0,0,.05-0.78,0-3.27-0.16-5.51-13.41-7-13.41-16v-4.83c0-4.78,4.63-8.11,9.82-8.11,4.94,0,10.19,3,10.19,8.16v5.61H986.6s0.05-4.21.05-4.63a2.93,2.93,0,0,0-3.27-3.12,2.85,2.85,0,0,0-3,2.91V587c0,7.28,13.72,7.17,13.72,16.74v4.94C994.13,614.71,988.31,617.31,983.53,617.31Z"/>
    <path class="cls-2" d="M1018.61,593.25a7.4,7.4,0,0,1-7.8,7.38h-5.35v15.8h-6.65V576.67h11.69c5.41,0,8.11,4.63,8.11,8.94v7.64Zm-9.77-10.81h-3.38V595h3.38c3,0,3-3.53,3-4.37,0-.68.05-4,0.05-5.46C1011.86,583.37,1010.92,582.44,1008.84,582.44Z"/>
    <path class="cls-2" d="M1022.25,616.43V576.67h6.91v39.76h-6.91Z"/>
    <path class="cls-2" d="M1048.71,616.43L1043.93,599h-2.55l-0.05,17.46h-7V576.67h11.54c3.79,0,8.73,1.51,8.73,8v7.28c0,6.44-4.31,6.55-4.31,6.55l5.25,18h-6.86Zm-4.05-33.89h-3.48V593.2h3.12a3.23,3.23,0,0,0,3.59-3.53V586C1047.88,583.68,1046.79,582.54,1044.66,582.54Z"/>
    <path class="cls-2" d="M1059.21,616.43V576.67h6.91v39.76h-6.91Z"/>
    <path class="cls-2" d="M1084.52,582.54v33.89h-7.07V582.65h-7.69v-6h22.3v5.87h-7.54Z"/>
  </g>
</svg>
