<svg id="Icons_White" data-name="Icons White" xmlns="http://www.w3.org/2000/svg" viewBox="0 0 50 50">
  <defs>
    <style>
      .cls-1 {
        fill: #fff;
      }
    </style>
  </defs>
  <title>icon_pinterest</title>
  <path class="cls-1" d="M25,0a25,25,0,0,0-9.11,48.28A24,24,0,0,1,16,41.11c0.45-1.95,2.93-12.43,2.93-12.43A9,9,0,0,1,18.16,25c0-3.48,2-6.07,4.52-6.07,2.13,0,3.17,1.6,3.17,3.52,0,2.14-1.37,5.35-2.07,8.32a3.63,3.63,0,0,0,3.7,4.52c4.44,0,7.86-4.68,7.86-11.45,0-6-4.3-10.17-10.45-10.17A10.82,10.82,0,0,0,13.61,24.49a9.73,9.73,0,0,0,1.86,5.7,0.75,0.75,0,0,1,.18.72l-0.69,2.84c-0.11.46-.36,0.55-0.84,0.33C11,32.63,9,28.06,9,24.4,9,16.51,14.77,9.27,25.56,9.27,34.23,9.27,41,15.45,41,23.71c0,8.62-5.43,15.55-13,15.55-2.53,0-4.91-1.32-5.73-2.87,0,0-1.25,4.78-1.56,5.94a28,28,0,0,1-3.11,6.55A25,25,0,1,0,25,0h0Zm0,0"/>
</svg>
