<svg id="Icons_White" data-name="Icons White" xmlns="http://www.w3.org/2000/svg" viewBox="0 0 50 50">
  <defs>
    <style>
      .cls-1 {
        fill: #fff;
      }
    </style>
  </defs>
  <title>icon_</title>
  <path class="cls-1" d="M25,0A25,25,0,1,0,50,25,25,25,0,0,0,25,0h0ZM37.43,18.63c0,0.27,0,.55,0,0.83C37.45,27.93,31,37.7,19.2,37.7a18.12,18.12,0,0,1-9.83-2.88,12.52,12.52,0,0,0,1.53.09,12.86,12.86,0,0,0,8-2.75,6.41,6.41,0,0,1-6-4.45,6.3,6.3,0,0,0,1.21.12,6.51,6.51,0,0,0,1.69-.22,6.42,6.42,0,0,1-5.14-6.29V21.23a6.39,6.39,0,0,0,2.9.8,6.42,6.42,0,0,1-2-8.56,18.21,18.21,0,0,0,13.21,6.7,6.42,6.42,0,0,1,10.93-5.85,12.92,12.92,0,0,0,4.07-1.56,6.43,6.43,0,0,1-2.82,3.55,12.88,12.88,0,0,0,3.69-1,13.13,13.13,0,0,1-3.2,3.32h0Zm0,0"/>
</svg>
