<svg id="Icons_White" data-name="Icons White" xmlns="http://www.w3.org/2000/svg" viewBox="0 0 50 50">
  <defs>
    <style>
      .cls-1 {
        fill: #fff;
      }
    </style>
  </defs>
  <title>icon_</title>
  <path class="cls-1" d="M25,0A25,25,0,1,0,50,25,25,25,0,0,0,25,0Zm3.52,32.67L22.29,38.9a7.87,7.87,0,0,1-5.59,2.31h0a7.91,7.91,0,0,1-5.59-13.5L14,24.86a1.69,1.69,0,1,1,2.38,2.39l-2.84,2.84a4.54,4.54,0,1,0,6.42,6.42l6.22-6.22a4.55,4.55,0,0,0,0-6.42,1.69,1.69,0,0,1,2.39-2.38A7.92,7.92,0,0,1,28.52,32.67ZM38.89,22.3L36,25.14a1.69,1.69,0,1,1-2.38-2.38l2.85-2.85a4.54,4.54,0,0,0-6.42-6.42l-6.22,6.23a4.54,4.54,0,0,0,0,6.42,1.69,1.69,0,0,1-2.39,2.38,7.92,7.92,0,0,1,0-11.19l6.23-6.22A7.91,7.91,0,1,1,38.89,22.3Z"/>
</svg>
