<svg id="Icons_White" data-name="Icons White" xmlns="http://www.w3.org/2000/svg" viewBox="0 0 50 50">
  <defs>
    <style>
      .cls-1 {
        fill: #fff;
      }
    </style>
  </defs>
  <title>icon_vimeo</title>
  <path class="cls-1" d="M25,0A25,25,0,1,0,50,25,25,25,0,0,0,25,0h0ZM39.69,21.39C38,30.74,28.77,38.64,26,40.45s-5.33-.72-6.25-2.64c-1.06-2.18-4.22-14-5-15s-3.31,1-3.31,1l-1.21-1.58s5-6,8.89-6.78c4.07-.8,4.07,6.25,5,10.17s1.58,6,2.41,6,2.41-2.11,4.14-5.35-0.08-6.1-3.47-4.07c1.36-8.14,14.16-10.09,12.51-.76h0Zm0,0"/>
</svg>
