<svg id="Icons_White" data-name="Icons White" xmlns="http://www.w3.org/2000/svg" viewBox="0 0 50 50">
  <defs>
    <style>
      .cls-1 {
        fill: #fff;
      }
    </style>
  </defs>
  <title>icon_</title>
  <g>
    <rect class="cls-1" x="32.3" y="14.05" width="3.65" height="3.65" rx="0.91" ry="0.91"/>
    <path class="cls-1" d="M25,30.56a5.56,5.56,0,0,0,5.25-7.39H19.75A5.51,5.51,0,0,0,19.44,25,5.57,5.57,0,0,0,25,30.56Z"/>
    <path class="cls-1" d="M33.3,25a8.3,8.3,0,1,1-16.39-1.83H14.05v11a1.83,1.83,0,0,0,1.83,1.82H34.13a1.83,1.83,0,0,0,1.82-1.82V23.18H33.1A8.38,8.38,0,0,1,33.3,25Z"/>
    <path class="cls-1" d="M25,0A25,25,0,1,0,50,25,25,25,0,0,0,25,0ZM39.6,34.75a4.86,4.86,0,0,1-4.85,4.85H15.25a4.86,4.86,0,0,1-4.85-4.85V15.25a4.86,4.86,0,0,1,4.85-4.85h19.5a4.86,4.86,0,0,1,4.85,4.85v19.5Z"/>
  </g>
</svg>
