<svg id="Icons_White" data-name="Icons White" xmlns="http://www.w3.org/2000/svg" viewBox="0 0 50 50">
  <defs>
    <style>
      .cls-1 {
        fill: #fff;
      }
    </style>
  </defs>
  <title>icon_linkedin</title>
  <path class="cls-1" d="M25,0A25,25,0,1,0,50,25,25,25,0,0,0,25,0ZM16.39,39H9.92V19.62h6.46V39ZM13.15,17.46a3.23,3.23,0,1,1,3.23-3.23A3.23,3.23,0,0,1,13.15,17.46ZM40.08,39H33.86V29.8c0-2.2,0-5-3.23-5s-3.73,2.39-3.73,4.86V39H20.69V19.62h6v3.05h0.08a6.61,6.61,0,0,1,5.88-3.05c6.29,0,7.46,3.91,7.46,9V39Z"/>
</svg>
