<svg id="Layer_1" data-name="Layer 1" xmlns="http://www.w3.org/2000/svg" viewBox="0 0 350 372.37">
  <defs>
    <style>
      .cls-1 {
        fill: #6febb1;
        fill-rule: evenodd;
      }
    </style>
  </defs>
  <title>speech_bubble</title>
  <path class="cls-1" d="M350,171.83c-0.74,5-1.39,10-2.23,14.95-4.77,28-16.89,52.56-34.36,74.68C292.73,287.61,267,308,238.52,324.92c-33,19.59-67.93,34.48-105.24,43.49-8.32,2-16.92,2.69-25.38,3.95a15,15,0,0,1-2.23-.15c19.72-32.08,39.18-63.77,59-96-1.6,0-2.7,0-3.8,0-41.32-1.39-79.77-12-113.34-36.84C21.33,220,6,193.8,1.56,161.36-1.81,136.72,0,112.68,9.45,89.51c11.39-28.07,31.3-48.65,57.29-63.64C86.75,14.33,108.37,7.33,131,3.62c8.74-1.44,17.62-2.09,26.44-3.11C158.32,0.42,159.13.18,160,0h31.65a14.08,14.08,0,0,0,1.92.5c5.81,0.63,11.65,1.07,17.44,1.86C231.84,5.24,251.78,11,270.36,21c45.15,24.22,70.24,62.41,77.88,112.65,0.66,4.3,1.18,8.62,1.76,12.94v25.22Z"/>
</svg>
