<svg id="Layer_1" data-name="Layer 1" xmlns="http://www.w3.org/2000/svg" viewBox="0 0 207.48 118">
  <defs>
    <style>
      .cls-1, .cls-2 {
        fill: #fff;
      }

      .cls-1 {
        fill-rule: evenodd;
      }

      .cls-3 {
        fill: #2c3384;
      }
    </style>
  </defs>
  <title>y_logo_year_lockup</title>
  <g>
    <path class="cls-1" d="M24.57,25.77l0.35,0h28V32H47.72a3.84,3.84,0,0,0-1,.13,1.71,1.71,0,0,0-1.3,2.2,6.83,6.83,0,0,0,.83,1.87c1.06,1.8,2.13,3.6,3.19,5.41L61.93,62.93c0.49,0.84,1,1.68,1.47,2.54a1.22,1.22,0,0,1,.16.58q0,10.38,0,20.75a4.29,4.29,0,0,0,.07.84,2,2,0,0,0,1.9,1.71c0.3,0,.61,0,0.92,0H72v6.15H41.8V89.41h5.8a4.26,4.26,0,0,0,1-.12,1.85,1.85,0,0,0,1.46-1.78c0-.28,0-0.56,0-0.84q0-9.32,0-18.64A0.9,0.9,0,0,0,50,67.59L39.37,49.48q-4.29-7.32-8.59-14.64a12.59,12.59,0,0,0-1-1.45A3.74,3.74,0,0,0,26.85,32c-0.76,0-1.52,0-2.29,0V25.77Z"/>
    <path class="cls-1" d="M92.28,37.21c-0.06.42-.12,0.85-0.19,1.27a13.91,13.91,0,0,1-2.91,6.33,22.75,22.75,0,0,1-6.35,5.38,32.24,32.24,0,0,1-8.92,3.69c-0.7.17-1.43,0.23-2.15,0.33a1.05,1.05,0,0,1-.19,0l5-8.14H76.24a16.65,16.65,0,0,1-9.61-3.12,9.52,9.52,0,0,1-3.89-6.61,11.66,11.66,0,0,1,.67-6.09,10.88,10.88,0,0,1,4.86-5.4,15.91,15.91,0,0,1,5.45-1.89c0.74-.12,1.49-0.18,2.24-0.26l0.21,0h2.68l0.16,0c0.49,0.05,1,.09,1.48.16a14.83,14.83,0,0,1,5,1.58A12.33,12.33,0,0,1,92.12,34c0.06,0.37.1,0.73,0.15,1.1v2.14Z"/>
  </g>
  <path class="cls-2" d="M117,118H0V0H117V118ZM4,114H113V4H4V114Z"/>
  <g>
    <path class="cls-3" d="M138.14,104.57h2.32V117.2h-2.6l-6-9.2v9.08h-2.32v-12.5h2.66l5.92,9.1v-9.1Z"/>
    <path class="cls-3" d="M149.16,117.38a6.1,6.1,0,0,1-6.42-6.52,6.29,6.29,0,0,1,6.44-6.58,6.07,6.07,0,0,1,6.4,6.5A6.29,6.29,0,0,1,149.16,117.38Zm0-11.06c-2.38,0-3.92,1.8-3.92,4.46s1.56,4.56,4,4.56,3.94-1.82,3.94-4.48S151.56,106.31,149.12,106.31Z"/>
    <path class="cls-3" d="M157.6,117.33a1,1,0,0,1-1-1,1,1,0,0,1,2,0A1,1,0,0,1,157.6,117.33Z"/>
    <path class="cls-3" d="M161.13,117.08v-3.85c5.69-3.6,8.78-5.29,8.78-7.27,0-1.26-.94-2-2.74-2a10.23,10.23,0,0,0-5.26,1.91l-1.22-4.1a14.33,14.33,0,0,1,7.78-2.45c4.64,0,7.34,2.38,7.34,5.69,0,3-2.52,5.22-7.16,7.59h8l0.07,4.5H161.13Z"/>
    <path class="cls-3" d="M182.79,105l-4.17,1-0.11-4.57,9.79-2.12v17.82h-5.51V105Z"/>
  </g>
  <g>
    <path class="cls-3" d="M138,17.6l-0.82-3.14h-4.27l-0.82,3.14h-3.86l4.42-15h4.8l4.42,15H138ZM135,6.08l-1.49,5.45h2.93Z"/>
    <path class="cls-3" d="M143.09,17.6V2.6h3.65v15h-3.65Z"/>
    <path class="cls-3" d="M156,18c-4.34,0-7.32-2.86-7.32-7.8s2.86-7.92,7.32-7.92a7.74,7.74,0,0,1,4.49,1.3l-1,3.17a5.85,5.85,0,0,0-3.46-1.22c-2.16,0-3.58,1.8-3.58,4.58,0,3,1.2,4.8,3.53,4.8a4.73,4.73,0,0,0,1.32-.22V12.1h-2.5v-3h5.88v7.44A7.87,7.87,0,0,1,156,18Z"/>
    <path class="cls-3" d="M171.51,17.6l-0.82-3.14h-4.27l-0.82,3.14h-3.86l4.42-15H171l4.42,15h-3.86ZM168.59,6.08l-1.49,5.45H170Z"/>
    <path class="cls-3" d="M135.09,37.68c0-1.31-1.08-1.84-2.84-2.36-1.58-.47-3.28-1.15-3.28-3.15,0-1.78,1.51-3.06,3.6-3.06a6.17,6.17,0,0,1,3.38,1l-0.41,1a5.46,5.46,0,0,0-3-.94c-1.69,0-2.5.9-2.5,1.93,0,1.24,1.12,1.71,2.84,2.25s3.26,1.22,3.26,3.26c0,1.85-1.55,3.24-3.8,3.24a6.77,6.77,0,0,1-3.62-1l0.41-1a5.66,5.66,0,0,0,3.24,1C134,39.81,135.09,38.87,135.09,37.68Z"/>
    <path class="cls-3" d="M142.46,39.61A3.21,3.21,0,0,1,140,40.83a2.39,2.39,0,0,1-2.61-2.29c0-1.49,1.17-2.72,5-2.93V35.13a1.7,1.7,0,0,0-1.94-2,5,5,0,0,0-2.7,1l-0.25-1a5.84,5.84,0,0,1,3.06-1c1.91,0,3,.86,3,3v4c0,0.59.11,0.85,0.83,0.83l-0.07.92a1.45,1.45,0,0,1-1.8-1.17h-0.05Zm0-3.24c-2.83.32-3.83,1-3.83,2.05a1.51,1.51,0,0,0,1.69,1.44,2.93,2.93,0,0,0,2.14-1.08V36.37Z"/>
    <path class="cls-3" d="M151.27,40.6V35.27c0-1.44-.58-2.09-1.82-2.09a3.71,3.71,0,0,0-2.5,1.17V40.6h-1.12V32.35l1.12-.23v1.35a4.27,4.27,0,0,1,2.81-1.35c1.66,0,2.63,1,2.63,2.83V40.6h-1.12Z"/>
    <path class="cls-3" d="M161.78,40.6h-3V29.35h3.06c3.69,0,6,2.23,6,5.55C167.83,38.44,165.61,40.6,161.78,40.6Zm0-10.19H160v9.13h1.87c2.88,0,4.84-1.48,4.84-4.56C166.68,32.12,164.88,30.41,161.8,30.41Z"/>
    <path class="cls-3" d="M170.3,30.46a0.76,0.76,0,0,1-.76-0.83,0.76,0.76,0,1,1,1.51,0A0.76,0.76,0,0,1,170.3,30.46ZM169.74,40.6V32.35l1.12-.23V40.6h-1.12Z"/>
    <path class="cls-3" d="M173.74,36.6c0,1.85,1.15,3.19,2.88,3.19A4.45,4.45,0,0,0,179,39.1l0.22,1a5.07,5.07,0,0,1-2.65.7,4,4,0,0,1-4-4.29c0-2.59,1.66-4.43,3.89-4.43a2.84,2.84,0,0,1,3,3,5.07,5.07,0,0,1-.18,1.31l-5.58,0V36.6Zm4.65-1a2.48,2.48,0,0,0,0-.36,1.89,1.89,0,0,0-2-2.12,2.67,2.67,0,0,0-2.61,2.5Z"/>
    <path class="cls-3" d="M180.85,39.3a1.86,1.86,0,0,1,1.35-1.57,2.88,2.88,0,0,1-1.33-2.52,3.06,3.06,0,0,1,3.24-3.1,3.88,3.88,0,0,1,1.94.49l2.29-.18,0.05,1.12-1.82-.18a2.87,2.87,0,0,1,.67,1.85,3,3,0,0,1-3.21,3,3.52,3.52,0,0,1-1.22-.23,1.28,1.28,0,0,0-.92,1c0,0.52.4,0.85,1.87,0.85h1.06c2.4,0,3.42.81,3.42,2.16,0,1.82-2,3.06-4.34,3.06s-3.73-1-3.73-2.41a2.2,2.2,0,0,1,1.78-2A1.44,1.44,0,0,1,180.85,39.3Zm0.41,3.15c0,1,1.06,1.69,2.81,1.69s3.1-.83,3.1-1.94-0.86-1.31-2.5-1.31c-0.56,0-1.26,0-1.73-.05A2,2,0,0,0,181.27,42.45Zm2.83-5.11a2,2,0,0,0,2.05-2.16A2,2,0,0,0,184,33,2.15,2.15,0,0,0,184.09,37.34Z"/>
    <path class="cls-3" d="M193,40.83c-2.29,0-4-1.69-4-4.34A4.07,4.07,0,0,1,193,32.12c2.3,0,4,1.69,4,4.34A4.07,4.07,0,0,1,193,40.83Zm0-7.71c-1.75,0-2.9,1.39-2.9,3.33s1.17,3.37,2.92,3.37,2.9-1.39,2.9-3.33S194.74,33.13,193,33.13Z"/>
    <path class="cls-3" d="M133.41,59.08V63.6h-1.15V59.08l-3.93-6.73h1.3l3.24,5.6,3.19-5.6h1.28Z"/>
    <path class="cls-3" d="M145.71,63.6h-3V52.35h3.06c3.69,0,6,2.23,6,5.55C151.76,61.44,149.54,63.6,145.71,63.6Zm0-10.19h-1.84v9.13h1.87c2.88,0,4.84-1.48,4.84-4.56C150.6,55.12,148.8,53.41,145.72,53.41Z"/>
    <path class="cls-3" d="M154.31,59.6c0,1.85,1.15,3.19,2.88,3.19a4.45,4.45,0,0,0,2.39-.68l0.22,1a5.06,5.06,0,0,1-2.65.7,4,4,0,0,1-4-4.28c0-2.59,1.66-4.43,3.89-4.43a2.84,2.84,0,0,1,3,3,5.07,5.07,0,0,1-.18,1.31l-5.58,0V59.6Zm4.65-1a2.48,2.48,0,0,0,0-.36,1.89,1.89,0,0,0-2-2.12,2.67,2.67,0,0,0-2.61,2.5Z"/>
    <path class="cls-3" d="M164,63.83a5.27,5.27,0,0,1-2.7-.74l0.31-1a4.5,4.5,0,0,0,2.43.76,1.6,1.6,0,0,0,1.85-1.39c0-1-1-1.28-2.07-1.6s-2.4-.9-2.4-2.34,1.24-2.38,2.79-2.38a5.64,5.64,0,0,1,2.5.61l-0.32,1a4.91,4.91,0,0,0-2.25-.61c-1,0-1.66.47-1.66,1.26s1,1.22,2,1.55,2.43,0.88,2.43,2.41S165.61,63.83,164,63.83Z"/>
    <path class="cls-3" d="M169.08,53.46a0.76,0.76,0,0,1-.76-0.83,0.76,0.76,0,1,1,1.51,0A0.76,0.76,0,0,1,169.08,53.46ZM168.53,63.6V55.35l1.12-.23V63.6h-1.12Z"/>
    <path class="cls-3" d="M171.51,62.3a1.86,1.86,0,0,1,1.35-1.57,2.88,2.88,0,0,1-1.33-2.52,3.06,3.06,0,0,1,3.24-3.1,3.88,3.88,0,0,1,1.94.49l2.29-.18,0.05,1.12-1.82-.18a2.87,2.87,0,0,1,.67,1.85,3,3,0,0,1-3.21,3,3.52,3.52,0,0,1-1.22-.23,1.28,1.28,0,0,0-.92,1c0,0.52.4,0.85,1.87,0.85h1.06c2.4,0,3.42.81,3.42,2.16,0,1.82-2,3.06-4.34,3.06s-3.73-1-3.73-2.41a2.2,2.2,0,0,1,1.78-2A1.44,1.44,0,0,1,171.51,62.3Zm0.41,3.15c0,1,1.06,1.69,2.81,1.69s3.1-.83,3.1-1.94-0.86-1.31-2.5-1.31c-0.56,0-1.26,0-1.73-.05A2,2,0,0,0,171.93,65.45Zm2.83-5.11a2,2,0,0,0,2.05-2.16A2,2,0,0,0,174.7,56,2.15,2.15,0,0,0,174.75,60.34Z"/>
    <path class="cls-3" d="M185.73,63.6V58.27c0-1.44-.58-2.09-1.82-2.09a3.71,3.71,0,0,0-2.5,1.17V63.6h-1.12V55.35l1.12-.23v1.35a4.27,4.27,0,0,1,2.81-1.35c1.66,0,2.63,1,2.63,2.83V63.6h-1.12Z"/>
    <path class="cls-3" d="M137.52,77.06a5.71,5.71,0,0,0-3.13-.9c-2.45,0-4.25,1.75-4.25,4.81s1.71,4.83,4.29,4.83a5.43,5.43,0,0,0,3.15-1l0.22,1.13a6.41,6.41,0,0,1-3.38.92c-3.26,0-5.44-2.27-5.44-5.83s2.29-5.89,5.44-5.89a7,7,0,0,1,3.47.92Z"/>
    <path class="cls-3" d="M142.89,86.83c-2.29,0-4-1.69-4-4.34A4.07,4.07,0,0,1,143,78.12c2.3,0,4,1.69,4,4.34A4.07,4.07,0,0,1,142.89,86.83Zm0-7.71c-1.75,0-2.9,1.39-2.9,3.33s1.17,3.37,2.92,3.37,2.9-1.39,2.9-3.33S144.67,79.13,142.92,79.13Z"/>
    <path class="cls-3" d="M154.16,86.6V81.27c0-1.44-.58-2.09-1.82-2.09a3.7,3.7,0,0,0-2.5,1.17V86.6h-1.12V78.35l1.12-.23v1.35a4.27,4.27,0,0,1,2.81-1.35c1.66,0,2.63,1,2.63,2.83V86.6h-1.12Z"/>
    <path class="cls-3" d="M161.48,75.44a3,3,0,0,0-1.26-.34c-0.92,0-1.37.59-1.37,1.93v1.37h2.59l-0.05,1h-2.54V86.6h-1.1V79.41l-1.33-.09,0.07-.7,1.24-.29,0-1.3c0-2.18,1-3,2.49-3a3.74,3.74,0,0,1,1.51.36S161.48,75.45,161.48,75.44Z"/>
    <path class="cls-3" d="M163.09,82.6c0,1.85,1.15,3.19,2.88,3.19a4.45,4.45,0,0,0,2.39-.68l0.22,1a5.06,5.06,0,0,1-2.65.7,4,4,0,0,1-4-4.29c0-2.59,1.66-4.43,3.89-4.43a2.84,2.84,0,0,1,3,3,5.07,5.07,0,0,1-.18,1.31l-5.58,0V82.6Zm4.65-1a2.48,2.48,0,0,0,0-.36,1.89,1.89,0,0,0-2-2.12,2.67,2.67,0,0,0-2.61,2.5Z"/>
    <path class="cls-3" d="M171.77,86.6h-1.12V78.35l1.12-.23v1.76a2.77,2.77,0,0,1,2.43-1.76,3,3,0,0,1,1.44.38l-0.29,1a2.46,2.46,0,0,0-1.26-.36c-0.86,0-1.67.65-2.32,2.12V86.6Z"/>
    <path class="cls-3" d="M177.23,82.6c0,1.85,1.15,3.19,2.88,3.19a4.45,4.45,0,0,0,2.39-.68l0.22,1a5.06,5.06,0,0,1-2.65.7,4,4,0,0,1-4-4.29c0-2.59,1.66-4.43,3.89-4.43a2.84,2.84,0,0,1,3,3,5.07,5.07,0,0,1-.18,1.31l-5.58,0V82.6Zm4.65-1a2.48,2.48,0,0,0,0-.36,1.89,1.89,0,0,0-2-2.12,2.67,2.67,0,0,0-2.61,2.5Z"/>
    <path class="cls-3" d="M190.23,86.6V81.27c0-1.44-.58-2.09-1.82-2.09a3.7,3.7,0,0,0-2.5,1.17V86.6h-1.12V78.35l1.12-.23v1.35a4.27,4.27,0,0,1,2.81-1.35c1.66,0,2.63,1,2.63,2.83V86.6h-1.12Z"/>
    <path class="cls-3" d="M197.09,86.83c-2.48,0-4-1.78-4-4.34a4.07,4.07,0,0,1,4.05-4.37,4.7,4.7,0,0,1,2.57.7l-0.29,1a4.16,4.16,0,0,0-2.29-.67c-1.78,0-2.9,1.33-2.9,3.29s1.17,3.33,2.92,3.33a4.27,4.27,0,0,0,2.29-.68l0.23,1A4.93,4.93,0,0,1,197.09,86.83Z"/>
    <path class="cls-3" d="M201.72,82.6c0,1.85,1.15,3.19,2.88,3.19A4.45,4.45,0,0,0,207,85.1l0.22,1a5.06,5.06,0,0,1-2.65.7,4,4,0,0,1-4-4.29c0-2.59,1.66-4.43,3.89-4.43a2.84,2.84,0,0,1,3,3,5.07,5.07,0,0,1-.18,1.31l-5.58,0V82.6Zm4.65-1a2.48,2.48,0,0,0,0-.36,1.89,1.89,0,0,0-2-2.12,2.67,2.67,0,0,0-2.61,2.5Z"/>
  </g>
</svg>
